<svg xmlns="http://www.w3.org/2000/svg" width="32" height="32" viewBox="0 0 32 32" shape-rendering="crispEdges">
  <!-- Chimney -->
  <rect x="20" y="0" width="4" height="8" fill="#7a5a3a"/>
  <rect x="20" y="0" width="4" height="2" fill="#5a3a1a"/>
  <!-- Smoke -->
  <rect x="18" y="0" width="2" height="2" fill="#cccccc88"/>
  <rect x="24" y="2" width="2" height="2" fill="#cccccc66"/>
  <!-- Roof -->
  <rect x="2" y="10" width="28" height="2" fill="#8B3A3A"/>
  <rect x="4" y="8" width="24" height="2" fill="#A04444"/>
  <rect x="6" y="6" width="20" height="2" fill="#C05050"/>
  <rect x="8" y="4" width="16" height="2" fill="#D06060"/>
  <rect x="10" y="2" width="12" height="2" fill="#E07070"/>
  <!-- Roof overhang shadow -->
  <rect x="2" y="12" width="28" height="2" fill="#6a2222"/>
  <!-- Walls -->
  <rect x="4" y="14" width="24" height="14" fill="#e8d8b0"/>
  <rect x="4" y="14" width="2" height="14" fill="#c8b888"/>
  <rect x="26" y="14" width="2" height="14" fill="#d0c090"/>
  <rect x="6" y="14" width="20" height="2" fill="#f0e8c8"/>
  <!-- Left window -->
  <rect x="6" y="16" width="6" height="6" fill="#a8d4f0"/>
  <rect x="6" y="16" width="6" height="2" fill="#7ab8e0"/>
  <rect x="6" y="16" width="2" height="6" fill="#8a6030"/>
  <rect x="10" y="16" width="2" height="6" fill="#8a6030"/>
  <rect x="6" y="20" width="6" height="2" fill="#8a6030"/>
  <rect x="8" y="16" width="2" height="6" fill="#8a6030"/>
  <!-- Right window -->
  <rect x="20" y="16" width="6" height="6" fill="#a8d4f0"/>
  <rect x="20" y="16" width="6" height="2" fill="#7ab8e0"/>
  <rect x="20" y="16" width="2" height="6" fill="#8a6030"/>
  <rect x="24" y="16" width="2" height="6" fill="#8a6030"/>
  <rect x="20" y="20" width="6" height="2" fill="#8a6030"/>
  <rect x="22" y="16" width="2" height="6" fill="#8a6030"/>
  <!-- Door -->
  <rect x="12" y="20" width="8" height="8" fill="#5a3010"/>
  <rect x="12" y="20" width="2" height="8" fill="#7a4a20"/>
  <rect x="18" y="20" width="2" height="8" fill="#7a4a20"/>
  <rect x="12" y="20" width="8" height="2" fill="#7a4a20"/>
  <!-- Door knob -->
  <rect x="18" y="24" width="2" height="2" fill="#d4a830"/>
  <!-- Foundation -->
  <rect x="4" y="28" width="24" height="2" fill="#a08050"/>
  <rect x="10" y="28" width="12" height="2" fill="#b89060"/>
  <rect x="2" y="30" width="28" height="2" fill="#7a6030"/>
</svg>
