<svg xmlns="http://www.w3.org/2000/svg" width="32" height="32" viewBox="0 0 32 32" shape-rendering="crispEdges">
  <!-- Roof -->
  <rect x="6" y="6" width="20" height="2" fill="#8B3A3A"/>
  <rect x="8" y="4" width="16" height="2" fill="#A04444"/>
  <rect x="10" y="2" width="12" height="2" fill="#C05050"/>
  <rect x="12" y="0" width="8" height="2" fill="#D06060"/>
  <!-- Roof overhang -->
  <rect x="4" y="8" width="24" height="2" fill="#7A2E2E"/>
  <!-- Walls -->
  <rect x="6" y="10" width="20" height="16" fill="#D4A96A"/>
  <rect x="6" y="10" width="2" height="16" fill="#B8894A"/>
  <rect x="24" y="10" width="2" height="16" fill="#C09050"/>
  <!-- Door -->
  <rect x="12" y="16" width="8" height="10" fill="#1a1008"/>
  <rect x="14" y="14" width="4" height="2" fill="#1a1008"/>
  <!-- Door frame -->
  <rect x="10" y="14" width="2" height="12" fill="#a07040"/>
  <rect x="20" y="14" width="2" height="12" fill="#a07040"/>
  <rect x="12" y="14" width="8" height="2" fill="#a07040"/>
  <!-- Sign plaque -->
  <rect x="12" y="18" width="8" height="4" fill="#c8a060"/>
  <rect x="14" y="20" width="2" height="2" fill="#6a3a0a"/>
  <rect x="18" y="20" width="2" height="2" fill="#6a3a0a"/>
  <!-- Ground base -->
  <rect x="4" y="26" width="24" height="2" fill="#8a6a3a"/>
  <rect x="2" y="28" width="28" height="2" fill="#6a4a1a"/>
  <!-- Bone decoration -->
  <rect x="14" y="0" width="4" height="2" fill="#f0e8d0"/>
</svg>
