<svg xmlns="http://www.w3.org/2000/svg" width="22" height="22" viewBox="0 0 16 16" shape-rendering="crispEdges">
  <!-- Pixel-art Yorkshire Terrier dog, facing right -->

  <!-- Tail (up-curled) -->
  <rect x="1" y="6" width="1" height="1" fill="#4a6fa5"/>
  <rect x="2" y="5" width="1" height="1" fill="#4a6fa5"/>
  <rect x="3" y="4" width="1" height="1" fill="#3a5a8a"/>

  <!-- Body -->
  <rect x="3" y="7" width="6" height="4" fill="#3a5a8a"/>
  <rect x="4" y="6" width="5" height="1" fill="#4a6fa5"/>
  <rect x="3" y="8" width="7" height="2" fill="#4a6fa5"/>
  <!-- Tan saddle markings -->
  <rect x="4" y="7" width="4" height="3" fill="#c8822a"/>
  <rect x="5" y="7" width="2" height="4" fill="#d4944a"/>

  <!-- Neck -->
  <rect x="9" y="6" width="2" height="3" fill="#c8822a"/>

  <!-- Head -->
  <rect x="10" y="4" width="4" height="4" fill="#c8822a"/>
  <rect x="11" y="3" width="3" height="2" fill="#b87020"/>

  <!-- Ears -->
  <rect x="13" y="3" width="1" height="3" fill="#c8822a"/>
  <rect x="14" y="3" width="1" height="2" fill="#b87020"/>
  <rect x="10" y="3" width="1" height="2" fill="#b87020"/>

  <!-- Face: eye -->
  <rect x="13" y="5" width="1" height="1" fill="#1a1008"/>
  <!-- Nose -->
  <rect x="14" y="7" width="1" height="1" fill="#1a1008"/>
  <!-- Muzzle tan -->
  <rect x="13" y="6" width="2" height="2" fill="#e8b060"/>
  <!-- Teeth hint -->
  <rect x="14" y="8" width="1" height="1" fill="#f0e8d0"/>

  <!-- Fur tuft on top of head -->
  <rect x="11" y="2" width="1" height="2" fill="#d4944a"/>
  <rect x="12" y="1" width="1" height="2" fill="#c8822a"/>

  <!-- Red bow -->
  <rect x="11" y="2" width="2" height="1" fill="#cc2222"/>
  <rect x="11" y="1" width="1" height="1" fill="#ee3333"/>
  <rect x="12" y="1" width="1" height="1" fill="#ee3333"/>

  <!-- Front legs -->
  <rect x="9" y="10" width="1" height="3" fill="#c8822a"/>
  <rect x="10" y="10" width="1" height="3" fill="#b87020"/>
  <!-- Front paws -->
  <rect x="9" y="13" width="2" height="1" fill="#8a5010"/>

  <!-- Back legs -->
  <rect x="4" y="11" width="2" height="3" fill="#c8822a"/>
  <!-- Back paws -->
  <rect x="3" y="13" width="3" height="1" fill="#8a5010"/>

  <!-- Shadow -->
  <rect x="3" y="14" width="10" height="1" fill="#22222233"/>
</svg>
